<?xml version="1.0" encoding="UTF-8"?>
<svg id="Layer_2" data-name="Layer 2" xmlns="http://www.w3.org/2000/svg" viewBox="0 0 320 320">
  <defs>
    <style>
      .cls-1 {
        fill: #55f5c3;
      }

      .cls-2 {
        fill: #fff;
      }

      .cls-3 {
        fill: #00194b;
      }
    </style>
  </defs>
  <g id="Layer_1-2" data-name="Layer 1">
    <g>
      <rect class="cls-2" width="320" height="320"/>
      <g>
        <path class="cls-1" d="M171.58,138.92c-33.78,3.14-60.59,30.31-63.16,64.23-2.57-33.91-29.38-61.09-63.14-64.23,33.76-3.16,60.57-30.33,63.14-64.27,2.57,33.93,29.38,61.1,63.16,64.27Z"/>
        <path class="cls-3" d="M137.9,268.39v-2.42s0-61.29,0-61.29c0-20.03,16.24-36.26,36.26-36.26h35.58c15.98,0,29.6-12.4,30.21-28.36.64-16.78-12.84-30.64-29.48-30.64l-37.74.35c-19.19,0-34.75-15.56-34.75-34.75l71.36-.35c35.95,0,66,29.42,65.38,65.37-.6,34.92-29.19,63.14-64.25,63.14h-37.81v30.47c0,19.19-15.56,34.75-34.75,34.75Z"/>
      </g>
    </g>
  </g>
</svg>