<?xml version="1.0" encoding="UTF-8"?>
<svg id="Layer_2" data-name="Layer 2" xmlns="http://www.w3.org/2000/svg" viewBox="0 0 204.69 204.69">
  <defs>
    <style>
      .cls-1 {
        fill: #55f5c3;
      }

      .cls-2 {
        fill: #fff;
      }
    </style>
  </defs>
  <g id="Layer_1-2" data-name="Layer 1">
    <g>
      <path class="cls-1" d="M102.35,0c-10.9,33.67-38.3,61.07-71.97,71.97,33.67,10.94,61.07,38.34,71.97,72.01,10.94-33.67,38.34-61.07,72.01-72.01C140.69,61.07,113.29,33.67,102.35,0Z"/>
      <path class="cls-2" d="M173.83,137.86h-30.49v24.57c0,15.47-12.54,28.02-28.02,28.02v-1.95s0-49.42,0-49.42c0-16.15,13.09-29.24,29.24-29.24h28.68c12.88,0,23.87-10,24.35-22.87.51-13.53-10.35-24.71-23.77-24.71l-30.43.28c-15.47,0-28.02-12.54-28.02-28.02l57.53-.28c28.99,0,53.21,23.72,52.71,52.7-.48,28.15-23.53,50.9-51.8,50.9Z"/>
    </g>
  </g>
</svg>
